<svg width="20" height="21" viewBox="0 0 20 21" fill="none" xmlns="http://www.w3.org/2000/svg">
<path d="M14.0165 13.4041C13.7124 13.2513 13.342 13.3699 13.1832 13.6708C13.0364 13.9773 13.1577 14.3451 13.4582 14.5041C14.1915 14.8791 14.6082 15.3374 14.6082 15.7791C14.6082 16.7208 12.6415 17.7708 10.0082 17.7708C7.37484 17.7708 5.39984 16.7291 5.39984 15.8124C5.39984 15.3791 5.8165 14.9124 6.54984 14.5374C6.76975 14.4493 6.9209 14.2443 6.94017 14.0082C6.95943 13.772 6.8435 13.5453 6.64079 13.4226C6.43807 13.2999 6.18342 13.3025 5.98317 13.4291C4.97142 13.8104 4.26607 14.7358 4.1665 15.8124C4.1665 17.6624 6.6665 19.0541 9.99984 19.0541C13.3332 19.0541 15.8332 17.6624 15.8332 15.8124C15.7428 14.7265 15.0359 13.7893 14.0165 13.4041Z" fill="#145DB8"/>
<path fill-rule="evenodd" clip-rule="evenodd" d="M9.37484 16.1791V12.5791C6.63058 12.2485 4.61861 9.8377 4.78422 7.07856C4.94984 4.31943 7.23574 2.16663 9.99984 2.16663C12.7639 2.16663 15.0498 4.31943 15.2154 7.07856C15.3811 9.8377 13.3691 12.2485 10.6248 12.5791V16.1791C10.6248 16.5243 10.345 16.8041 9.99984 16.8041C9.65466 16.8041 9.37484 16.5243 9.37484 16.1791ZM13.6867 5.86757C13.068 4.37834 11.6125 3.40907 9.99984 3.41244C7.80641 3.41703 6.02942 5.19401 6.02484 7.38744C6.02147 9.00006 6.99074 10.4556 8.47996 11.0743C9.96919 11.693 11.6845 11.3527 12.8248 10.2124C13.9651 9.07211 14.3054 7.35679 13.6867 5.86757Z" fill="#145DB8"/>
<path d="M7.99151 8.31244C8.33668 8.31244 8.61651 8.03262 8.61651 7.68744C8.61651 6.73015 9.39254 5.95411 10.3498 5.95411C10.695 5.95411 10.9748 5.67429 10.9748 5.32911C10.9748 4.98393 10.695 4.70411 10.3498 4.70411C9.5564 4.70632 8.79633 5.02363 8.23685 5.58624C7.67736 6.14885 7.36429 6.91067 7.36651 7.70411C7.3687 7.86767 7.43579 8.02365 7.553 8.13774C7.67021 8.25182 7.82795 8.31467 7.99151 8.31244Z" fill="#145DB8"/>
</svg>
