<svg width="16" height="15" viewBox="0 0 16 15" fill="none" xmlns="http://www.w3.org/2000/svg">
<path d="M7.33333 8.16675H10.6667M5.33333 8.16675H5.33932M8.66666 10.8334H5.33333M10.6667 10.8334H10.6607" stroke="#05162C" stroke-width="1.5" stroke-linecap="round" stroke-linejoin="round"/>
<path d="M12 0.833252V2.16658M4 0.833252V2.16658" stroke="#05162C" stroke-width="1.5" stroke-linecap="round" stroke-linejoin="round"/>
<path d="M1.66666 7.66216C1.66666 4.75729 1.66666 3.30486 2.5014 2.40243C3.33615 1.5 4.67965 1.5 7.36666 1.5H8.63332C11.3203 1.5 12.6638 1.5 13.4986 2.40243C14.3333 3.30486 14.3333 4.75729 14.3333 7.66216V8.0045C14.3333 10.9094 14.3333 12.3618 13.4986 13.2642C12.6638 14.1667 11.3203 14.1667 8.63332 14.1667H7.36666C4.67965 14.1667 3.33615 14.1667 2.5014 13.2642C1.66666 12.3618 1.66666 10.9094 1.66666 8.0045V7.66216Z" stroke="#05162C" stroke-width="1.5" stroke-linecap="round" stroke-linejoin="round"/>
<path d="M2 4.83325H14" stroke="#05162C" stroke-width="1.5" stroke-linecap="round" stroke-linejoin="round"/>
</svg>
