<svg width="15" height="18" viewBox="0 0 15 18" fill="none" xmlns="http://www.w3.org/2000/svg">
<path d="M7.82649 14.6325C8.59261 13.0097 8.90252 11.209 8.72299 9.42351C8.56099 7.86251 8.64649 7.98901 8.81699 7.30351C10.056 8.29201 11.606 8.12101 12.872 7.81101C13.0513 8.09579 13.1723 8.41337 13.2278 8.74529C13.2833 9.07721 13.2723 9.41686 13.1955 9.74451C12.8126 12.129 11.7025 14.337 10.017 16.0665C8.61749 17.501 7.21649 17.6425 5.63049 16.4315C3.39749 14.726 1.51499 12.7265 0.772491 9.90051C0.368991 8.36451 1.61749 5.95201 3.10249 5.38851C3.45249 5.24351 3.85499 5.33101 4.11349 5.60751M4.11349 5.60751C4.90574 6.35698 5.50833 7.28417 5.87149 8.31251C6.14549 8.99001 6.37799 9.68401 6.64749 10.421C5.36949 6.81951 4.81449 6.18851 4.11349 5.60751ZM4.11349 5.60751C4.55599 4.54001 5.78599 3.72551 6.16949 3.35351C6.31949 3.19201 6.39799 2.97651 6.38499 2.75651C6.34832 2.66527 6.33157 2.56724 6.33587 2.469C6.34017 2.37076 6.36542 2.27458 6.40993 2.18689C6.45443 2.0992 6.51717 2.02204 6.59393 1.96058C6.67069 1.89911 6.7597 1.85477 6.85499 1.83051C7.44549 1.58451 8.00999 1.25051 8.67499 1.79751C8.84619 1.88053 9.03252 1.92778 9.22259 1.93637C9.41266 1.94497 9.60249 1.91473 9.78049 1.84751C10.7355 1.54351 11.6605 1.14751 12.478 0.833008L13.572 3.03801C12.9035 3.50001 12.082 4.03151 11.3025 4.61901C10.6926 5.06671 10.1192 5.56227 9.58799 6.10101" stroke="#05162C" stroke-linecap="round" stroke-linejoin="round"/>
</svg>
