<svg width="20" height="21" viewBox="0 0 20 21" fill="none" xmlns="http://www.w3.org/2000/svg">
<path fill-rule="evenodd" clip-rule="evenodd" d="M10.0001 2.79163C5.74289 2.79163 2.29175 6.24276 2.29175 10.5C2.29175 14.7572 5.74289 18.2083 10.0001 18.2083C14.2573 18.2083 17.7084 14.7572 17.7084 10.5C17.7084 6.24276 14.2573 2.79163 10.0001 2.79163ZM1.04175 10.5C1.04175 5.55241 5.05253 1.54163 10.0001 1.54163C14.9476 1.54163 18.9584 5.55241 18.9584 10.5C18.9584 15.4475 14.9476 19.4583 10.0001 19.4583C5.05253 19.4583 1.04175 15.4475 1.04175 10.5ZM10.0001 6.54163C10.3453 6.54163 10.6251 6.82145 10.6251 7.16663V10.2411L12.5254 12.1414C12.7694 12.3854 12.7694 12.7812 12.5254 13.0252C12.2813 13.2693 11.8856 13.2693 11.6415 13.0252L9.55814 10.9419C9.44093 10.8247 9.37508 10.6657 9.37508 10.5V7.16663C9.37508 6.82145 9.6549 6.54163 10.0001 6.54163Z" fill="#6D7379"/>
</svg>
