<svg width="25" height="23" viewBox="0 0 25 23" fill="none" xmlns="http://www.w3.org/2000/svg">
<rect x="1" y="0.5" width="23" height="22" rx="11" fill="white" fill-opacity="0.9"/>
<rect x="1" y="0.5" width="23" height="22" rx="11" stroke="url(#paint0_linear_803_2377)"/>
<path d="M6.41202 18.2386H18.5883C20.0583 18.2386 20.8076 17.5035 20.8076 16.0477V8.64831C20.8076 7.1925 20.0583 6.4646 18.5883 6.4646H16.9347C16.3835 6.4646 16.214 6.35152 15.8959 5.99812L15.3233 5.36189C14.9771 4.97351 14.6168 4.76123 13.8816 4.76123H11.0689C10.341 4.76123 9.98038 4.97351 9.62728 5.36189L9.05467 5.99812C8.74379 6.34429 8.56709 6.4646 8.01588 6.4646H6.41172C4.94174 6.4646 4.19243 7.1925 4.19243 8.64831V16.0477C4.19243 17.5035 4.94204 18.2386 6.41202 18.2386ZM6.43283 17.1006C5.73327 17.1006 5.33042 16.7261 5.33042 15.991V8.71193C5.33042 7.97679 5.73327 7.60229 6.43283 7.60229H8.29842C8.93466 7.60229 9.27388 7.48228 9.62728 7.08666L10.1854 6.4646C10.5883 6.0123 10.7933 5.89922 11.4223 5.89922H13.5282C14.1572 5.89922 14.3623 6.0123 14.7651 6.4646L15.3233 7.08636C15.6767 7.48228 16.0159 7.60229 16.6521 7.60229H18.5672C19.2667 7.60229 19.6699 7.97679 19.6699 8.71193V15.991C19.6699 16.7261 19.267 17.1006 18.5672 17.1006H6.43283ZM12.4967 15.9771C13.0044 15.9785 13.5074 15.8795 13.9766 15.6856C14.4459 15.4918 14.8721 15.207 15.2308 14.8476C15.5894 14.4883 15.8734 14.0615 16.0664 13.5919C16.2594 13.1223 16.3575 12.6191 16.3551 12.1114C16.3551 9.9627 14.6448 8.24576 12.4964 8.24576C10.3621 8.24576 8.64488 9.9627 8.64488 12.1114C8.64488 14.2596 10.3621 15.9771 12.4964 15.9771M17.5775 10.3867C18.0582 10.3867 18.4538 9.99828 18.4538 9.51763C18.4538 9.28523 18.3615 9.06235 18.1971 8.89802C18.0328 8.73369 17.8099 8.64137 17.5775 8.64137C17.3451 8.64137 17.1223 8.73369 16.9579 8.89802C16.7936 9.06235 16.7013 9.28523 16.7013 9.51763C16.7013 9.99828 17.0969 10.3867 17.5775 10.3867ZM12.4967 14.903C10.9631 14.903 9.71231 13.6592 9.71231 12.1114C9.71231 10.5637 10.9561 9.32013 12.4967 9.32013C12.8634 9.31969 13.2266 9.39159 13.5654 9.53171C13.9043 9.67182 14.2122 9.87741 14.4715 10.1367C14.7308 10.396 14.9364 10.7038 15.0766 11.0427C15.2167 11.3816 15.2887 11.7447 15.2883 12.1114C15.2887 12.4782 15.2168 12.8414 15.0767 13.1802C14.9365 13.5191 14.7309 13.8271 14.4716 14.0864C14.2123 14.3457 13.9044 14.5513 13.5655 14.6914C13.2266 14.8316 12.8634 14.9035 12.4967 14.903Z" fill="#145DB8"/>
<defs>
<linearGradient id="paint0_linear_803_2377" x1="26.5" y1="20" x2="0.500001" y2="5" gradientUnits="userSpaceOnUse">
<stop offset="0.05" stop-color="#145DB8"/>
<stop offset="0.629808" stop-color="white"/>
</linearGradient>
</defs>
</svg>
