<svg width="26" height="26" viewBox="0 0 26 26" fill="none" xmlns="http://www.w3.org/2000/svg">
<path d="M25 13H22.3335M22.3335 13C22.3335 15.4756 21.3507 17.8491 19.6002 19.5996C17.8497 21.3501 15.4756 22.3335 13 22.3335M22.3335 13C22.3335 10.5244 21.3507 8.14964 19.6002 6.39916C17.8497 4.64867 15.4756 3.66653 13 3.66653M13 1V3.66653M13 3.66653C10.5246 3.66653 8.1506 4.64861 6.40024 6.39897C4.64987 8.14934 3.66653 10.5233 3.66653 12.9987C3.66653 15.4741 4.64987 17.8481 6.40024 19.5985C8.1506 21.3489 10.5246 22.3335 13 22.3335M1 13H3.66653M13 25V22.3335" stroke="#145DB8" stroke-width="1.5" stroke-miterlimit="10" stroke-linecap="round"/>
<path d="M13.0003 18.3333C14.4147 18.3333 15.7712 17.7715 16.7713 16.7713C17.7715 15.7712 18.3333 14.4147 18.3333 13.0003C18.3333 11.5859 17.7715 10.2294 16.7713 9.22925C15.7712 8.22911 14.4147 7.66724 13.0003 7.66724C11.5859 7.66724 10.2294 8.22911 9.22925 9.22925C8.22911 10.2294 7.66724 11.5859 7.66724 13.0003C7.66724 14.4147 8.22911 15.7712 9.22925 16.7713C10.2294 17.7715 11.5859 18.3333 13.0003 18.3333Z" stroke="#145DB8" stroke-width="1.5" stroke-miterlimit="10" stroke-linecap="round"/>
</svg>
