<svg width="16" height="17" viewBox="0 0 16 17" fill="none" xmlns="http://www.w3.org/2000/svg">
<path d="M11.2133 10.8235C10.9701 10.7013 10.6737 10.7961 10.5466 11.0368C10.4292 11.2821 10.5263 11.5763 10.7666 11.7035C11.3533 12.0035 11.6866 12.3702 11.6866 12.7235C11.6866 13.4768 10.1133 14.3168 8.00665 14.3168C5.89998 14.3168 4.31998 13.4835 4.31998 12.7502C4.31998 12.4035 4.65331 12.0302 5.23998 11.7302C5.41591 11.6596 5.53683 11.4956 5.55224 11.3067C5.56766 11.1178 5.47491 10.9364 5.31274 10.8383C5.15056 10.7402 4.94685 10.7422 4.78665 10.8435C3.97724 11.1486 3.41296 11.8888 3.33331 12.7502C3.33331 14.2302 5.33331 15.3435 7.99998 15.3435C10.6666 15.3435 12.6666 14.2302 12.6666 12.7502C12.5943 11.8814 12.0288 11.1316 11.2133 10.8235Z" fill="#6D7379"/>
<path fill-rule="evenodd" clip-rule="evenodd" d="M7.49998 13.0435V10.1635C5.30458 9.89898 3.695 7.97036 3.82749 5.76305C3.95998 3.55574 5.7887 1.8335 7.99998 1.8335C10.2113 1.8335 12.04 3.55574 12.1725 5.76305C12.305 7.97036 10.6954 9.89898 8.49998 10.1635V13.0435C8.49998 13.3196 8.27612 13.5435 7.99998 13.5435C7.72384 13.5435 7.49998 13.3196 7.49998 13.0435ZM10.9495 4.79425C10.4545 3.60287 9.29008 2.82745 7.99998 2.83015C6.24524 2.83382 4.82365 4.25541 4.81998 6.01015C4.81729 7.30025 5.5927 8.46469 6.78408 8.95963C7.97546 9.45457 9.34772 9.18236 10.26 8.27012C11.1722 7.35789 11.4444 5.98563 10.9495 4.79425Z" fill="#6D7379"/>
<path d="M6.39331 6.75015C6.66946 6.75015 6.89331 6.52629 6.89331 6.25015C6.89331 5.48432 7.51415 4.86348 8.27998 4.86348C8.55612 4.86348 8.77998 4.63963 8.77998 4.36348C8.77998 4.08734 8.55612 3.86348 8.27998 3.86348C7.64523 3.86525 7.03718 4.1191 6.58959 4.56919C6.142 5.01927 5.89154 5.62873 5.89331 6.26348C5.89507 6.39433 5.94874 6.51911 6.04251 6.61038C6.13628 6.70165 6.26247 6.75193 6.39331 6.75015Z" fill="#6D7379"/>
</svg>
