<svg width="10" height="14" viewBox="0 0 10 14" fill="none" xmlns="http://www.w3.org/2000/svg">
<path d="M8.21331 9.32336C7.97007 9.20113 7.67374 9.29596 7.54665 9.5367C7.4292 9.78195 7.5263 10.0762 7.76665 10.2034C8.35331 10.5034 8.68665 10.87 8.68665 11.2234C8.68665 11.9767 7.11331 12.8167 5.00665 12.8167C2.89998 12.8167 1.31998 11.9834 1.31998 11.25C1.31998 10.9034 1.65331 10.53 2.23998 10.23C2.41591 10.1595 2.53683 9.99552 2.55224 9.8066C2.56766 9.61768 2.47491 9.43628 2.31274 9.33816C2.15056 9.24003 1.94685 9.24205 1.78665 9.34336C0.977245 9.64843 0.412965 10.3887 0.333313 11.25C0.333313 12.73 2.33331 13.8434 4.99998 13.8434C7.66665 13.8434 9.66665 12.73 9.66665 11.25C9.59435 10.3813 9.02881 9.63153 8.21331 9.32336Z" fill="#6D7379"/>
<path fill-rule="evenodd" clip-rule="evenodd" d="M4.49998 11.5434V8.66336C2.30458 8.39886 0.694998 6.47023 0.82749 4.26292C0.959981 2.05562 2.7887 0.333374 4.99998 0.333374C7.21126 0.333374 9.03998 2.05562 9.17247 4.26292C9.30496 6.47023 7.69538 8.39886 5.49998 8.66336V11.5434C5.49998 11.8195 5.27612 12.0434 4.99998 12.0434C4.72384 12.0434 4.49998 11.8195 4.49998 11.5434ZM7.94946 3.29413C7.45452 2.10275 6.29008 1.32733 4.99998 1.33003C3.24524 1.3337 1.82365 2.75528 1.81998 4.51003C1.81729 5.80012 2.5927 6.96456 3.78408 7.45951C4.97546 7.95445 6.34772 7.68224 7.25995 6.77C8.17219 5.85776 8.4444 4.48551 7.94946 3.29413Z" fill="#6D7379"/>
<path d="M3.39331 5.25003C3.66946 5.25003 3.89331 5.02617 3.89331 4.75003C3.89331 3.98419 4.51415 3.36336 5.27998 3.36336C5.55612 3.36336 5.77998 3.1395 5.77998 2.86336C5.77998 2.58722 5.55612 2.36336 5.27998 2.36336C4.64523 2.36513 4.03718 2.61898 3.58959 3.06906C3.142 3.51915 2.89154 4.12861 2.89331 4.76336C2.89507 4.89421 2.94874 5.01899 3.04251 5.11026C3.13628 5.20153 3.26247 5.25181 3.39331 5.25003Z" fill="#6D7379"/>
</svg>
