<svg width="18" height="18" viewBox="0 0 18 18" fill="none" xmlns="http://www.w3.org/2000/svg">
<path d="M12.615 11.6137C12.3414 11.4762 12.008 11.5829 11.865 11.8537C11.7329 12.1296 11.8421 12.4607 12.1125 12.6037C12.7725 12.9412 13.1475 13.3537 13.1475 13.7512C13.1475 14.5987 11.3775 15.5437 9.0075 15.5437C6.6375 15.5437 4.86 14.6062 4.86 13.7812C4.86 13.3912 5.235 12.9712 5.895 12.6337C6.09293 12.5544 6.22896 12.3699 6.2463 12.1574C6.26364 11.9448 6.1593 11.7408 5.97685 11.6304C5.79441 11.52 5.56523 11.5223 5.385 11.6362C4.47442 11.9794 3.83961 12.8123 3.75 13.7812C3.75 15.4462 6 16.6987 9 16.6987C12 16.6987 14.25 15.4462 14.25 13.7812C14.1687 12.8039 13.5324 11.9604 12.615 11.6137Z" fill="#145DB8"/>
<path fill-rule="evenodd" clip-rule="evenodd" d="M8.4375 14.1112V10.8712C5.96767 10.5737 4.1569 8.40397 4.30595 5.92074C4.455 3.43752 6.51231 1.5 9 1.5C11.4877 1.5 13.545 3.43752 13.6941 5.92074C13.8431 8.40397 12.0323 10.5737 9.5625 10.8712V14.1112C9.5625 14.4219 9.31066 14.6737 9 14.6737C8.68934 14.6737 8.4375 14.4219 8.4375 14.1112ZM12.3182 4.83085C11.7614 3.49055 10.4514 2.6182 9 2.62124C7.02591 2.62536 5.42663 4.22465 5.4225 6.19874C5.41947 7.65009 6.29181 8.96009 7.63211 9.5169C8.97241 10.0737 10.5162 9.76747 11.5425 8.74121C12.5687 7.71494 12.875 6.17115 12.3182 4.83085Z" fill="#145DB8"/>
<path d="M7.1925 7.03124C7.50316 7.03124 7.755 6.7794 7.755 6.46874C7.755 5.60717 8.45344 4.90874 9.315 4.90874C9.62566 4.90874 9.8775 4.6569 9.8775 4.34624C9.8775 4.03558 9.62566 3.78374 9.315 3.78374C8.6009 3.78572 7.91685 4.0713 7.41331 4.57765C6.90977 5.084 6.62801 5.76964 6.63 6.48374C6.63198 6.63094 6.69235 6.77132 6.79785 6.874C6.90334 6.97668 7.0453 7.03324 7.1925 7.03124Z" fill="#145DB8"/>
</svg>
