<svg width="12" height="18" viewBox="0 0 12 18" fill="none" xmlns="http://www.w3.org/2000/svg">
<path d="M10.0167 11.9042C9.71262 11.7514 9.3422 11.87 9.18334 12.1709C9.03653 12.4775 9.1579 12.8453 9.45834 13.0042C10.1917 13.3792 10.6083 13.8376 10.6083 14.2792C10.6083 15.2209 8.64167 16.2709 6.00834 16.2709C3.37501 16.2709 1.40001 15.2292 1.40001 14.3126C1.40001 13.8792 1.81667 13.4126 2.55 13.0376C2.76992 12.9494 2.92107 12.7444 2.94033 12.5083C2.9596 12.2721 2.84367 12.0454 2.64095 11.9227C2.43824 11.8001 2.18359 11.8026 1.98334 11.9292C0.971586 12.3106 0.266237 13.2359 0.166672 14.3126C0.166672 16.1626 2.66667 17.5542 6 17.5542C9.33334 17.5542 11.8333 16.1626 11.8333 14.3126C11.743 13.2266 11.036 12.2894 10.0167 11.9042Z" fill="#99A2AB"/>
<path fill-rule="evenodd" clip-rule="evenodd" d="M5.375 14.6792V11.0792C2.63075 10.7486 0.618778 8.33782 0.784393 5.57869C0.950007 2.81955 3.2359 0.666748 6 0.666748C8.76411 0.666748 11.05 2.81955 11.2156 5.57869C11.3812 8.33782 9.36926 10.7486 6.625 11.0792V14.6792C6.625 15.0244 6.34518 15.3042 6 15.3042C5.65483 15.3042 5.375 15.0244 5.375 14.6792ZM9.68686 4.36769C9.06818 2.87847 7.61263 1.9092 6.00001 1.91257C3.80658 1.91715 2.02959 3.69414 2.02501 5.88757C2.02164 7.50019 2.99091 8.95574 4.48013 9.57442C5.96935 10.1931 7.68468 9.85283 8.82497 8.71253C9.96527 7.57224 10.3055 5.85691 9.68686 4.36769Z" fill="#99A2AB"/>
<path d="M3.99167 6.81257C4.33685 6.81257 4.61667 6.53274 4.61667 6.18757C4.61667 5.23027 5.39271 4.45423 6.35001 4.45423C6.69518 4.45423 6.97501 4.17441 6.97501 3.82923C6.97501 3.48406 6.69518 3.20423 6.35001 3.20423C5.55657 3.20644 4.7965 3.52375 4.23702 4.08636C3.67753 4.64897 3.36446 5.41079 3.36667 6.20423C3.36887 6.36779 3.43595 6.52377 3.55317 6.63786C3.67038 6.75195 3.82812 6.81479 3.99167 6.81257Z" fill="#99A2AB"/>
</svg>
