<svg width="22" height="20" viewBox="0 0 22 20" fill="none" xmlns="http://www.w3.org/2000/svg">
<path fill-rule="evenodd" clip-rule="evenodd" d="M4.62436 2.42423C2.96537 3.18256 1.75 4.98626 1.75 7.13713C1.75 9.33453 2.64922 11.0283 3.93829 12.4798C5.00072 13.6761 6.28684 14.6677 7.54113 15.6346C7.83904 15.8643 8.13515 16.0926 8.42605 16.3219C8.95208 16.7366 9.42132 17.1006 9.87361 17.3649C10.3261 17.6293 10.6904 17.75 11 17.75C11.3096 17.75 11.6739 17.6293 12.1264 17.3649C12.5787 17.1006 13.0479 16.7366 13.574 16.3219C13.8649 16.0926 14.161 15.8643 14.4589 15.6346C15.7132 14.6677 16.9993 13.6761 18.0617 12.4798C19.3508 11.0283 20.25 9.33453 20.25 7.13713C20.25 4.98626 19.0346 3.18256 17.3756 2.42423C15.7639 1.68751 13.5983 1.88261 11.5404 4.02077C11.399 4.16766 11.2039 4.25067 11 4.25067C10.7961 4.25067 10.601 4.16766 10.4596 4.02077C8.40166 1.88261 6.23607 1.68751 4.62436 2.42423ZM11 2.45885C8.68795 0.390275 6.09896 0.100903 4.00076 1.05999C1.78471 2.07296 0.25 4.42506 0.25 7.13713C0.25 9.80266 1.3605 11.8361 2.81672 13.4758C3.98287 14.789 5.41022 15.888 6.67083 16.8586C6.95659 17.0786 7.23378 17.2921 7.49742 17.4999C8.00965 17.9037 8.55954 18.3343 9.11682 18.66C9.67386 18.9855 10.3096 19.25 11 19.25C11.6904 19.25 12.3261 18.9855 12.8832 18.66C13.4405 18.3343 13.9903 17.9037 14.5026 17.4999C14.7662 17.2921 15.0434 17.0786 15.3292 16.8586C16.5898 15.888 18.0171 14.789 19.1833 13.4758C20.6395 11.8361 21.75 9.80266 21.75 7.13713C21.75 4.42506 20.2153 2.07296 17.9992 1.05999C15.901 0.100903 13.3121 0.390275 11 2.45885Z" fill="#05162C"/>
</svg>
