<svg width="32" height="43" viewBox="0 0 32 43" fill="none" xmlns="http://www.w3.org/2000/svg">
<g filter="url(#filter0_f_519_1082)">
<ellipse cx="12" cy="29" rx="4" ry="2" fill="black" fill-opacity="0.12"/>
</g>
<mask id="path-2-outside-1_519_1082" maskUnits="userSpaceOnUse" x="1.66699" y="1.6875" width="29" height="37" fill="black">
<rect fill="white" x="1.66699" y="1.6875" width="29" height="37"/>
<path d="M16 2.6875C23.3638 2.6875 29.333 8.70367 29.333 16.125C29.333 20.5382 27.2217 24.4536 23.9619 26.9033C21.4475 28.8068 17.8463 31.8269 17.0273 36.7178C16.9474 37.1945 16.5676 37.5709 16.0957 37.6162L16 37.6211C15.4844 37.6211 15.0579 37.2263 14.9727 36.7178C14.1537 31.8265 10.5516 28.8067 8.03711 26.9033C4.77767 24.4535 2.66699 20.5379 2.66699 16.125C2.66699 8.70367 8.6362 2.6875 16 2.6875Z"/>
</mask>
<path d="M16 2.6875C23.3638 2.6875 29.333 8.70367 29.333 16.125C29.333 20.5382 27.2217 24.4536 23.9619 26.9033C21.4475 28.8068 17.8463 31.8269 17.0273 36.7178C16.9474 37.1945 16.5676 37.5709 16.0957 37.6162L16 37.6211C15.4844 37.6211 15.0579 37.2263 14.9727 36.7178C14.1537 31.8265 10.5516 28.8067 8.03711 26.9033C4.77767 24.4535 2.66699 20.5379 2.66699 16.125C2.66699 8.70367 8.6362 2.6875 16 2.6875Z" fill="#145DB8"/>
<path d="M16 2.6875V1.6875V2.6875ZM23.9619 26.9033L23.3611 26.1039L23.3583 26.106L23.9619 26.9033ZM17.0273 36.7178L18.0136 36.8832L18.0136 36.8829L17.0273 36.7178ZM16.0957 37.6162L16.1467 38.6149L16.169 38.6138L16.1912 38.6116L16.0957 37.6162ZM16 37.6211V38.6211H16.0255L16.051 38.6198L16 37.6211ZM14.9727 36.7178L13.9864 36.8829L13.9864 36.8832L14.9727 36.7178ZM8.03711 26.9033L8.64067 26.106L8.63793 26.1039L8.03711 26.9033ZM16 2.6875V3.6875C22.8042 3.6875 28.333 9.24858 28.333 16.125H29.333H30.333C30.333 8.15877 23.9234 1.6875 16 1.6875V2.6875ZM29.333 16.125H28.333C28.333 20.2122 26.379 23.836 23.3611 26.1039L23.9619 26.9033L24.5627 27.7027C28.0644 25.0712 30.333 20.8642 30.333 16.125H29.333ZM23.9619 26.9033L23.3583 26.106C20.8327 28.018 16.9298 31.2446 16.0411 36.5526L17.0273 36.7178L18.0136 36.8829C18.7627 32.4093 22.0622 29.5956 24.5655 27.7006L23.9619 26.9033ZM17.0273 36.7178L16.0411 36.5524C16.0367 36.5786 16.0243 36.5993 16.0115 36.6118C15.9996 36.6232 15.9951 36.6213 16.0002 36.6208L16.0957 37.6162L16.1912 38.6116C17.1486 38.5198 17.8647 37.7707 18.0136 36.8832L17.0273 36.7178ZM16.0957 37.6162L16.0447 36.6175L15.949 36.6224L16 37.6211L16.051 38.6198L16.1467 38.6149L16.0957 37.6162ZM16 37.6211V36.6211C15.9995 36.6211 15.9998 36.6211 16.0005 36.6212C16.0012 36.6213 16.0015 36.6215 16.0013 36.6214C16.0009 36.6212 15.997 36.6196 15.991 36.6142C15.9776 36.6023 15.9636 36.5807 15.9589 36.5524L14.9727 36.7178L13.9864 36.8832C14.1447 37.8269 14.9502 38.6211 16 38.6211V37.6211ZM14.9727 36.7178L15.9589 36.5526C15.0701 31.2441 11.1662 28.0178 8.64067 26.106L8.03711 26.9033L7.43355 27.7006C9.93696 29.5957 13.2373 32.409 13.9864 36.8829L14.9727 36.7178ZM8.03711 26.9033L8.63793 26.1039C5.62048 23.836 3.66699 20.212 3.66699 16.125H2.66699H1.66699C1.66699 20.8638 3.93485 25.071 7.43629 27.7027L8.03711 26.9033ZM2.66699 16.125H3.66699C3.66699 9.24858 9.19584 3.6875 16 3.6875V2.6875V1.6875C8.07656 1.6875 1.66699 8.15877 1.66699 16.125H2.66699Z" fill="url(#paint0_linear_519_1082)" mask="url(#path-2-outside-1_519_1082)"/>
<ellipse cx="16.0001" cy="16.125" rx="5.33333" ry="5.375" fill="black" fill-opacity="0.4"/>
<defs>
<filter id="filter0_f_519_1082" x="6" y="25" width="12" height="8" filterUnits="userSpaceOnUse" color-interpolation-filters="sRGB">
<feFlood flood-opacity="0" result="BackgroundImageFix"/>
<feBlend mode="normal" in="SourceGraphic" in2="BackgroundImageFix" result="shape"/>
<feGaussianBlur stdDeviation="1" result="effect1_foregroundBlur_519_1082"/>
</filter>
<linearGradient id="paint0_linear_519_1082" x1="16" y1="2.6875" x2="16" y2="37.6211" gradientUnits="userSpaceOnUse">
<stop stop-color="white"/>
<stop offset="1" stop-color="white" stop-opacity="0.35"/>
</linearGradient>
</defs>
</svg>
