<svg width="18" height="17" viewBox="0 0 18 17" fill="none" xmlns="http://www.w3.org/2000/svg">
<path d="M6.62766 3.00706C7.6832 1.11352 8.21097 0.166748 9.00002 0.166748C9.78907 0.166748 10.3168 1.11352 11.3724 3.00706L11.6455 3.49694C11.9454 4.03503 12.0954 4.30407 12.3292 4.48159C12.5631 4.6591 12.8543 4.725 13.4368 4.85679L13.9671 4.97677C16.0168 5.44054 17.0417 5.67243 17.2855 6.45652C17.5293 7.24062 16.8306 8.05764 15.4333 9.69168L15.0718 10.1144C14.6747 10.5788 14.4761 10.8109 14.3868 11.0982C14.2975 11.3854 14.3275 11.6952 14.3875 12.3147L14.4422 12.8787C14.6535 15.0589 14.7591 16.149 14.1207 16.6336C13.4824 17.1182 12.5228 16.6764 10.6036 15.7927L10.1071 15.5641C9.56175 15.313 9.28906 15.1875 9.00002 15.1875C8.71097 15.1875 8.43829 15.313 7.89292 15.5641L7.39641 15.7927C5.47725 16.6764 4.51767 17.1182 3.87931 16.6336C3.24095 16.149 3.34659 15.0589 3.55785 12.8787L3.61251 12.3147C3.67254 11.6952 3.70256 11.3854 3.61324 11.0982C3.52392 10.8109 3.32537 10.5788 2.92829 10.1144L2.56677 9.69168C1.16939 8.05764 0.470707 7.24062 0.714538 6.45652C0.958368 5.67243 1.98323 5.44054 4.03297 4.97677L4.56326 4.85679C5.14573 4.725 5.43696 4.6591 5.67081 4.48159C5.90465 4.30407 6.05462 4.03503 6.35458 3.49694L6.62766 3.00706Z" fill="#F9E000"/>
</svg>
