<svg width="20" height="21" viewBox="0 0 20 21" fill="none" xmlns="http://www.w3.org/2000/svg">
<path d="M7.62772 5.00694C8.68326 3.1134 9.21103 2.16663 10.0001 2.16663C10.7891 2.16663 11.3169 3.1134 12.3724 5.00694L12.6455 5.49682C12.9455 6.0349 13.0955 6.30395 13.3293 6.48146C13.5631 6.65898 13.8544 6.72488 14.4368 6.85667L14.9671 6.97665C17.0169 7.44042 18.0417 7.67231 18.2856 8.4564C18.5294 9.24049 17.8307 10.0575 16.4333 11.6916L16.0718 12.1143C15.6747 12.5787 15.4762 12.8108 15.3869 13.0981C15.2975 13.3853 15.3276 13.6951 15.3876 14.3146L15.4422 14.8786C15.6535 17.0588 15.7591 18.1489 15.1208 18.6335C14.4824 19.1181 13.5229 18.6762 11.6037 17.7926L11.1072 17.564C10.5618 17.3129 10.2891 17.1873 10.0001 17.1873C9.71103 17.1873 9.43835 17.3129 8.89299 17.564L8.39648 17.7926C6.47731 18.6762 5.51773 19.1181 4.87937 18.6335C4.24101 18.1489 4.34665 17.0588 4.55791 14.8786L4.61257 14.3146C4.6726 13.6951 4.70262 13.3853 4.6133 13.0981C4.52398 12.8108 4.32544 12.5787 3.92835 12.1143L3.56683 11.6916C2.16946 10.0575 1.47077 9.24049 1.7146 8.4564C1.95843 7.67231 2.9833 7.44042 5.03303 6.97665L5.56332 6.85667C6.14579 6.72488 6.43702 6.65898 6.67087 6.48146C6.90471 6.30395 7.05468 6.0349 7.35464 5.49682L7.62772 5.00694Z" fill="#F9E000"/>
</svg>
