<svg width="18" height="19" viewBox="0 0 18 19" fill="none" xmlns="http://www.w3.org/2000/svg">
<path fill-rule="evenodd" clip-rule="evenodd" d="M8.99999 1.79175C4.74279 1.79175 1.29166 5.24289 1.29166 9.50008C1.29166 13.7573 4.74279 17.2084 8.99999 17.2084C13.2572 17.2084 16.7083 13.7573 16.7083 9.50008C16.7083 5.24289 13.2572 1.79175 8.99999 1.79175ZM0.0416565 9.50008C0.0416565 4.55253 4.05244 0.541748 8.99999 0.541748C13.9475 0.541748 17.9583 4.55253 17.9583 9.50008C17.9583 14.4476 13.9475 18.4584 8.99999 18.4584C4.05244 18.4584 0.0416565 14.4476 0.0416565 9.50008ZM8.99999 5.54175C9.34517 5.54175 9.62499 5.82157 9.62499 6.16675V9.2412L11.5253 11.1415C11.7693 11.3856 11.7693 11.7813 11.5253 12.0254C11.2812 12.2694 10.8855 12.2694 10.6414 12.0254L8.55805 9.94202C8.44084 9.82481 8.37499 9.66584 8.37499 9.50008V6.16675C8.37499 5.82157 8.65481 5.54175 8.99999 5.54175Z" fill="#6D7379"/>
</svg>
