<svg width="25" height="24" viewBox="0 0 25 24" fill="none" xmlns="http://www.w3.org/2000/svg">
<path d="M9.50002 6.00002C10 6.50002 11.003 6.41202 12.5 5.17602M12.5 5.17602C12.2787 4.99468 12.049 4.78602 11.811 4.55002C9.50502 2.26602 6.36502 2.71302 4.89402 4.55002C3.87802 5.82002 1.27802 8.98001 7.64202 20.24C7.90602 20.706 8.43102 21 8.99602 21C9.89802 21 10.603 20.28 10.632 19.44C10.695 17.658 11.04 15.603 12.5 15.603C13.96 15.603 14.306 17.658 14.368 19.44C14.397 20.28 15.102 21 16.004 21C16.569 21 17.094 20.706 17.358 20.24C23.723 8.97902 21.122 5.82002 20.106 4.55002C18.635 2.71302 15.495 2.26602 13.189 4.55002C12.951 4.78535 12.7214 4.99402 12.5 5.17602Z" stroke="#05162C" stroke-width="1.5" stroke-linecap="round" stroke-linejoin="round"/>
</svg>
